<svg xmlns="http://www.w3.org/2000/svg" viewBox="0 0 64 64">
  <defs>
    <linearGradient id="g" x1="0" y1="0" x2="1" y2="1">
      <stop offset="0%" stop-color="#0ea5e9" />
      <stop offset="100%" stop-color="#0284c7" />
    </linearGradient>
  </defs>
  <rect width="64" height="64" rx="14" fill="url(#g)" />
  <path fill="#fff" d="M30 12c-6 0-11.7 1.1-16.9 3.2a3 3 0 0 0-2.1 2.8v30.2a3 3 0 0 0 4 2.9A28 28 0 0 1 30 48c7 0 13.4 2.2 18.4 5.8V12.1A23.8 23.8 0 0 0 30 12Zm4 42.1A27.9 27.9 0 0 1 49 48c2.8 0 5.5.4 8 .9a3 3 0 0 0 4-2.9V18a3 3 0 0 0-2.1-2.8C53.7 13.1 48 12 42 12c-2.9 0-5.7.4-8.4 1.1V54.1Z"/>
</svg>
